<svg width="11" height="18" viewBox="0 0 11 18" fill="none" xmlns="http://www.w3.org/2000/svg">
<path d="M1.8 0C1.29375 0 0.867188 0.173438 0.520312 0.520312C0.173438 0.867187 0 1.29375 0 1.8C0 2.30625 0.173438 2.73282 0.520312 3.07969C0.867187 3.42657 1.29375 3.6 1.8 3.6C2.30625 3.6 2.73282 3.42657 3.07969 3.07969C3.42657 2.73282 3.6 2.30625 3.6 1.8C3.6 1.29375 3.42657 0.867188 3.07969 0.520312C2.73282 0.173438 2.30625 0 1.8 0ZM9 0C8.49375 0 8.06719 0.173438 7.72031 0.520312C7.37344 0.867187 7.2 1.29375 7.2 1.8C7.2 2.30625 7.37344 2.73282 7.72031 3.07969C8.06719 3.42657 8.49375 3.6 9 3.6C9.50625 3.6 9.93282 3.42657 10.2797 3.07969C10.6266 2.73282 10.8 2.30625 10.8 1.8C10.8 1.29375 10.6266 0.867188 10.2797 0.520312C9.93282 0.173438 9.50625 0 9 0ZM1.8 7.2C1.29375 7.2 0.867188 7.37344 0.520312 7.72031C0.173438 8.06719 0 8.49375 0 9C0 9.50625 0.173438 9.93281 0.520312 10.2797C0.867187 10.6266 1.29375 10.8 1.8 10.8C2.30625 10.8 2.73282 10.6266 3.07969 10.2797C3.42657 9.93282 3.6 9.50625 3.6 9C3.6 8.49375 3.42657 8.06719 3.07969 7.72031C2.73282 7.37344 2.30625 7.2 1.8 7.2ZM9 7.2C8.49375 7.2 8.06719 7.37344 7.72031 7.72031C7.37344 8.06719 7.2 8.49375 7.2 9C7.2 9.50625 7.37344 9.93281 7.72031 10.2797C8.06719 10.6266 8.49375 10.8 9 10.8C9.50625 10.8 9.93282 10.6266 10.2797 10.2797C10.6266 9.93282 10.8 9.50625 10.8 9C10.8 8.49375 10.6266 8.06719 10.2797 7.72031C9.93282 7.37344 9.50625 7.2 9 7.2ZM1.8 14.4C1.29375 14.4 0.867188 14.5734 0.520312 14.9203C0.173438 15.2672 0 15.6937 0 16.2C0 16.7063 0.173438 17.1328 0.520312 17.4797C0.867187 17.8266 1.29375 18 1.8 18C2.30625 18 2.73282 17.8266 3.07969 17.4797C3.42657 17.1328 3.6 16.7063 3.6 16.2C3.6 15.6937 3.42657 15.2672 3.07969 14.9203C2.73282 14.5734 2.30625 14.4 1.8 14.4ZM9 14.4C8.49375 14.4 8.06719 14.5734 7.72031 14.9203C7.37344 15.2672 7.2 15.6937 7.2 16.2C7.2 16.7063 7.37344 17.1328 7.72031 17.4797C8.06719 17.8266 8.49375 18 9 18C9.50625 18 9.93282 17.8266 10.2797 17.4797C10.6266 17.1328 10.8 16.7063 10.8 16.2C10.8 15.6937 10.6266 15.2672 10.2797 14.9203C9.93282 14.5734 9.50625 14.4 9 14.4Z" fill="#90A0B7"/>
</svg>
