<svg width="15" height="18" viewBox="0 0 15 18" fill="none" xmlns="http://www.w3.org/2000/svg">
<path d="M6.00002 0C5.56252 0 5.20314 0.140625 4.92189 0.421876C4.64064 0.703128 4.50001 1.0625 4.50001 1.50001V2.25001H0V3.75001H0.750002V15.7501C0.750002 16.3594 0.972659 16.8868 1.41797 17.3321C1.86329 17.7774 2.39063 18.0001 3.00001 18.0001H12C12.6094 18.0001 13.1368 17.7774 13.5821 17.3321C14.0274 16.8868 14.25 16.3594 14.25 15.7501V3.75001H15V2.25001H10.5V1.50001C10.5 1.06251 10.3594 0.703129 10.0782 0.421876C9.79691 0.140625 9.43753 0 9.00003 0H6.00002ZM6.00002 1.5H9.00003V2.25001H6.00002V1.5ZM2.25001 3.75001H12.75V15.75C12.75 15.9532 12.6758 16.129 12.5274 16.2774C12.3789 16.4258 12.2032 16.5001 12 16.5001H3.00001C2.79689 16.5001 2.6211 16.4258 2.47267 16.2774C2.32423 16.129 2.25001 15.9532 2.25001 15.75V3.75001ZM3.75001 6.00002V14.25H5.25002V6.00002H3.75001ZM6.75002 6.00002V14.25H8.25003V6.00002H6.75002ZM9.75003 6.00002V14.25H11.25V6.00002H9.75003Z" fill="#90A0B7"/>
</svg>
