<svg width="24" height="24" viewBox="0 0 24 24" fill="none" xmlns="http://www.w3.org/2000/svg">
    <path d="M12 7.51202e-06C9.82691 7.51202e-06 7.80768 0.548085 5.9423 1.64424C4.13461 2.70193 2.70191 4.13462 1.64423 5.94231C0.548076 7.80769 0 9.82692 0 12C0 14.1731 0.548076 16.1923 1.64423 18.0577C2.70192 19.8654 4.13462 21.2981 5.9423 22.3557C7.80768 23.4519 9.82691 24 12 24C14.1731 24 16.1923 23.4519 18.0577 22.3557C19.8654 21.2981 21.2981 19.8654 22.3557 18.0577C23.4519 16.1923 24 14.1731 24 12C24 10.5769 23.7884 9.3173 23.3654 8.22115L21.8654 9.6923C22.0577 10.4615 22.1538 11.2308 22.1538 12C22.1538 13.8461 21.6923 15.5577 20.7692 17.1346C19.8846 18.6731 18.673 19.8846 17.1346 20.7692C15.5577 21.6923 13.8461 22.1538 12 22.1538C10.1538 22.1538 8.44228 21.6923 6.86536 20.7692C5.3269 19.8846 4.11536 18.6731 3.23075 17.1346C2.30767 15.5577 1.84613 13.8461 1.84613 12C1.84613 10.1538 2.30767 8.4423 3.23075 6.86538C4.11536 5.32692 5.3269 4.11538 6.86536 3.23076C8.44228 2.30769 10.1538 1.84615 12 1.84615C13.3654 1.84615 14.6634 2.10576 15.8942 2.625C17.0673 3.10576 18.1057 3.79808 19.0096 4.70193L20.3077 3.40385C19.2307 2.32693 17.9759 1.49039 16.5432 0.89423C15.1106 0.298077 13.5961 0 12 0L12 7.51202e-06ZM22.4135 3.95193L12 14.3654L8.04807 10.4135L6.72114 11.7404L11.3365 16.3558L12 16.9904L12.6634 16.3558L23.7404 5.27888L22.4135 3.95193Z" fill="#2ED47A"/>
</svg>