<svg id="bold" enable-background="new 0 0 24 24" height="512" viewBox="0 0 24 24" width="512" xmlns="http://www.w3.org/2000/svg"><path d="m8.25 16c-.268 0-.521-.144-.656-.386l-1.094-1.969v1.605c0 .414-.336.75-.75.75s-.75-.336-.75-.75v-4.5c0-.342.231-.64.562-.726.329-.084.677.063.844.362l1.094 1.97v-1.606c0-.414.336-.75.75-.75s.75.336.75.75v4.5c0 .342-.231.64-.562.726-.063.016-.126.024-.188.024z"/><path d="m12.25 16h-.5c-.965 0-1.75-.785-1.75-1.75v-2.5c0-.965.785-1.75 1.75-1.75h.5c.965 0 1.75.785 1.75 1.75v2.5c0 .965-.785 1.75-1.75 1.75zm-.5-4.5c-.138 0-.25.112-.25.25v2.5c0 .138.112.25.25.25h.5c.138 0 .25-.112.25-.25v-2.5c0-.138-.112-.25-.25-.25z"/><path d="m17 16c-.414 0-.75-.336-.75-.75v-4.5c0-.414 1.5-.414 1.5 0v4.5c0 .414-.336.75-.75.75z"/><path d="m18.25 11.5h-2.5c-.414 0-.75-.336-.75-.75s.336-.75.75-.75h2.5c.414 0 .75.336.75.75s-.336.75-.75.75z"/><path d="m22.25 24h-1.5c-.414 0-.75-.336-.75-.75v-4.5c0-.414.336-.75.75-.75h1.5c.965 0 1.75.785 1.75 1.75v2.5c0 .965-.785 1.75-1.75 1.75zm-.75-1.5h.75c.138 0 .25-.112.25-.25v-2.5c0-.138-.112-.25-.25-.25h-.75z"/><path d="m.75 24c-.414 0-.75-.336-.75-.75v-3.5c0-.965.785-1.75 1.75-1.75h1.5c.414 0 .75.336.75.75s-.336.75-.75.75h-1.5c-.138 0-.25.112-.25.25v3.5c0 .414-.336.75-.75.75z"/><path d="m3.25 22h-2.5c-.414 0-.414-1.5 0-1.5h2.5c.414 0 .75.336.75.75s-.336.75-.75.75z"/><path d="m18.25 24c-.268 0-.521-.144-.656-.386l-1.094-1.97v1.605c0 .414-.336.75-.75.75s-.75-.335-.75-.749v-4.5c0-.342.231-.64.562-.726.329-.085.677.063.844.362l1.094 1.97v-1.606c0-.414.336-.75.75-.75s.75.336.75.75v4.5c0 .342-.231.64-.562.726-.063.016-.126.024-.188.024z"/><path d="m7.25 24h-.5c-.965 0-1.75-.785-1.75-1.75v-2.5c0-.965.785-1.75 1.75-1.75h.5c.965 0 1.75.785 1.75 1.75v2.5c0 .965-.785 1.75-1.75 1.75zm-.5-4.5c-.138 0-.25.112-.25.25v2.5c0 .138.112.25.25.25h.5c.138 0 .25-.112.25-.25v-2.5c0-.138-.112-.25-.25-.25z"/><path d="m12.25 24h-.5c-.965 0-1.75-.785-1.75-1.75v-3.5c0-.414.336-.75.75-.75s.75.336.75.75v3.5c0 .138.112.25.25.25h.5c.138 0 .25-.112.25-.25v-3.5c0-.414.336-.75.75-.75s.75.336.75.75v3.5c0 .965-.785 1.75-1.75 1.75z"/><path d="m1.75 16h.25v-11h20v11h.25c.635 0 1.225.174 1.75.454v-13.454c0-1.654-1.346-3-3-3h-18c-1.654 0-3 1.346-3 3v13.454c.525-.28 1.115-.454 1.75-.454z"/></svg>